<svg xmlns="http://www.w3.org/2000/svg"><defs>
<symbol id="sheep" viewBox="0 0 120 102">
<rect x="40" y="76" width="7" height="20" rx="3.5" fill="#0A1E33"></rect>
<rect x="63" y="76" width="7" height="20" rx="3.5" fill="#0A1E33"></rect>
<g fill="#fff" stroke="#0A1E33" stroke-width="3.4">
<circle cx="44" cy="56" r="19"></circle><circle cx="72" cy="56" r="19"></circle>
<circle cx="33" cy="46" r="15"></circle><circle cx="83" cy="46" r="15"></circle>
<circle cx="58" cy="40" r="18"></circle><circle cx="58" cy="64" r="17"></circle>
</g>
<circle cx="58" cy="53" r="24" fill="#fff"></circle>
<ellipse cx="74" cy="45" rx="6.5" ry="10" fill="#2b3340" transform="rotate(-28 74 45)"></ellipse>
<ellipse cx="98" cy="45" rx="6.5" ry="10" fill="#2b3340" transform="rotate(28 98 45)"></ellipse>
<ellipse cx="86" cy="57" rx="14.5" ry="16" fill="#2b3340" stroke="#0A1E33" stroke-width="3"></ellipse>
<circle cx="86" cy="44" r="8.5" fill="#fff" stroke="#0A1E33" stroke-width="3"></circle>
<circle cx="80.5" cy="56" r="3.4" fill="#fff"></circle><circle cx="91.5" cy="56" r="3.4" fill="#fff"></circle>
<circle cx="81" cy="56.6" r="1.7" fill="#0A1E33"></circle><circle cx="92" cy="56.6" r="1.7" fill="#0A1E33"></circle>
<path d="M83 65 q3 3 6 0" fill="none" stroke="#0A1E33" stroke-width="2.2" stroke-linecap="round"></path>
</symbol>
<symbol id="eagle" viewBox="0 0 200 84"><path d="M100 36 C90 28 80 16 60 12 C70 22 72 28 66 32 C50 28 36 34 22 48 C40 42 52 46 58 50 C44 54 34 62 26 74 C44 62 60 58 72 56 C80 58 86 64 92 68 L100 46 L108 68 C114 64 120 58 128 56 C140 58 156 62 174 74 C166 62 156 54 142 50 C148 46 160 42 178 48 C164 34 150 28 134 32 C128 28 130 22 140 12 C120 16 110 28 100 36Z" fill="currentColor"></path></symbol>
<symbol id="i-mountain" viewBox="0 0 24 24" fill="none" stroke="currentColor" stroke-width="2" stroke-linecap="round" stroke-linejoin="round"><path d="M3 19l5.5-8.5 3 4 3.5-6L21 19z"></path><circle cx="17" cy="6" r="1.6"></circle></symbol>
<symbol id="i-calendar" viewBox="0 0 24 24" fill="none" stroke="currentColor" stroke-width="2" stroke-linecap="round" stroke-linejoin="round"><rect x="3.5" y="5" width="17" height="16" rx="3"></rect><path d="M3.5 9.5h17M8 3v4M16 3v4"></path></symbol>
<symbol id="i-star" viewBox="0 0 24 24" fill="none" stroke="currentColor" stroke-width="2" stroke-linecap="round" stroke-linejoin="round"><path d="M12 3.5l2.6 5.3 5.9.9-4.3 4.1 1 5.8L12 17l-5.2 2.6 1-5.8-4.3-4.1 5.9-.9z"></path></symbol>
<symbol id="i-flame" viewBox="0 0 24 24" fill="none" stroke="currentColor" stroke-width="2" stroke-linecap="round" stroke-linejoin="round"><path d="M12 3c1 3-2 4-2 7a3 3 0 006 0c0-1.5-.6-2.2-1-3 2.5 1.5 4 4 4 7a7 7 0 11-14 0c0-4 3.5-6 4-8 .3-1 .5-2 3-3z"></path></symbol>
<symbol id="i-question" viewBox="0 0 24 24" fill="none" stroke="currentColor" stroke-width="2" stroke-linecap="round" stroke-linejoin="round"><path d="M9 9a3 3 0 115 2.2c-1 .8-2 1.3-2 2.8"></path><circle cx="12" cy="18" r="1.1" fill="currentColor" stroke="none"></circle></symbol>
<symbol id="i-wallet" viewBox="0 0 24 24" fill="none" stroke="currentColor" stroke-width="2" stroke-linecap="round" stroke-linejoin="round"><rect x="3" y="6" width="18" height="14" rx="3"></rect><path d="M3 9h13a2 2 0 012 2v2a2 2 0 01-2 2H3"></path><circle cx="16.5" cy="13" r="1.2" fill="currentColor" stroke="none"></circle></symbol>
<symbol id="i-card" viewBox="0 0 24 24" fill="none" stroke="currentColor" stroke-width="2" stroke-linecap="round" stroke-linejoin="round"><rect x="3" y="5.5" width="18" height="13" rx="3"></rect><path d="M3 9.5h18M6.5 14.5h4"></path></symbol>
<symbol id="i-people" viewBox="0 0 24 24" fill="none" stroke="currentColor" stroke-width="2" stroke-linecap="round" stroke-linejoin="round"><circle cx="9" cy="8" r="3"></circle><circle cx="16.5" cy="9" r="2.3"></circle><path d="M3.5 19c0-3 2.5-5 5.5-5s5.5 2 5.5 5M15 14c2.6 0 5 1.6 5 4.5"></path></symbol>
<symbol id="i-sunrise" viewBox="0 0 24 24" fill="none" stroke="currentColor" stroke-width="2" stroke-linecap="round" stroke-linejoin="round"><path d="M3 19h18M5.5 15a6.5 6.5 0 0113 0M12 3v4M5 8l1.5 1.5M19 8l-1.5 1.5"></path></symbol>
<symbol id="i-plane" viewBox="0 0 24 24" fill="none" stroke="currentColor" stroke-width="2" stroke-linecap="round" stroke-linejoin="round"><path d="M3 13l18-7-4 14-4-5-3 4-1-5z"></path></symbol>
<symbol id="i-check" viewBox="0 0 24 24" fill="none" stroke="currentColor" stroke-width="2" stroke-linecap="round" stroke-linejoin="round"><path d="M5 12.5l4.5 4.5L19 7"></path></symbol>
<symbol id="i-x" viewBox="0 0 24 24" fill="none" stroke="currentColor" stroke-width="2" stroke-linecap="round" stroke-linejoin="round"><path d="M6.5 6.5l11 11M17.5 6.5l-11 11"></path></symbol>
<symbol id="i-swim" viewBox="0 0 24 24" fill="none" stroke="currentColor" stroke-width="2" stroke-linecap="round" stroke-linejoin="round"><path d="M3 16c2 0 2-1.5 4.5-1.5S10 16 12 16s2-1.5 4.5-1.5S19 16 21 16M3 20c2 0 2-1.5 4.5-1.5S10 20 12 20s2-1.5 4.5-1.5S19 20 21 20"></path><circle cx="9" cy="6" r="2"></circle><path d="M9 8c3 0 5 2 6 4"></path></symbol>
<symbol id="i-hat" viewBox="0 0 24 24" fill="none" stroke="currentColor" stroke-width="2" stroke-linecap="round" stroke-linejoin="round"><path d="M4 16c0-2 3.5-3 8-3s8 1 8 3-3.5 3-8 3-8-1-8-3z"></path><path d="M8 14l1.5-7c.3-1.3 1-2 2.5-2s2.2.7 2.5 2L16 14"></path></symbol>
<symbol id="i-glasses" viewBox="0 0 24 24" fill="none" stroke="currentColor" stroke-width="2" stroke-linecap="round" stroke-linejoin="round"><circle cx="6.5" cy="13" r="3.5"></circle><circle cx="17.5" cy="13" r="3.5"></circle><path d="M10 12.5c.8-.7 3.2-.7 4 0M3 11l1.5-3M21 11l-1.5-3"></path></symbol>
<symbol id="i-sun" viewBox="0 0 24 24" fill="none" stroke="currentColor" stroke-width="2" stroke-linecap="round" stroke-linejoin="round"><circle cx="12" cy="12" r="4"></circle><path d="M12 2.5v2.5M12 19v2.5M2.5 12H5M19 12h2.5M5 5l1.7 1.7M17.3 17.3L19 19M19 5l-1.7 1.7M6.7 17.3L5 19"></path></symbol>
<symbol id="i-shoe" viewBox="0 0 24 24" fill="none" stroke="currentColor" stroke-width="2" stroke-linecap="round" stroke-linejoin="round"><path d="M3 9l2-.5 2 2.5 3 1 3 1.5 6 1c1.5.3 2 1 2 2v1.5H3z"></path><path d="M5 8.5V14"></path></symbol>
<symbol id="i-umbrella" viewBox="0 0 24 24" fill="none" stroke="currentColor" stroke-width="2" stroke-linecap="round" stroke-linejoin="round"><path d="M3.5 12a8.5 8.5 0 0117 0c-1.5-1.2-2.8-1.2-4.2 0-1.4-1.2-2.8-1.2-4.3 0-1.4-1.2-2.8-1.2-4.3 0-1.4-1.2-2.7-1.2-4.2 0z"></path><path d="M12 12v7a2 2 0 01-4 0"></path></symbol>
<symbol id="i-cash" viewBox="0 0 24 24" fill="none" stroke="currentColor" stroke-width="2" stroke-linecap="round" stroke-linejoin="round"><rect x="3" y="6.5" width="18" height="11" rx="2"></rect><circle cx="12" cy="12" r="2.6"></circle><path d="M6 9.5v5M18 9.5v5"></path></symbol>
<symbol id="i-jacket" viewBox="0 0 24 24" fill="none" stroke="currentColor" stroke-width="2" stroke-linecap="round" stroke-linejoin="round"><path d="M9 4l3 2 3-2 5 3-2 4-1-.6V20H7V10.4L6 11 4 7z"></path><path d="M12 6v14"></path></symbol>
<symbol id="i-battery" viewBox="0 0 24 24" fill="none" stroke="currentColor" stroke-width="2" stroke-linecap="round" stroke-linejoin="round"><rect x="3" y="8" width="16" height="9" rx="2"></rect><path d="M21 11v3"></path><path d="M11 7l-2 5h3l-2 5" stroke-width="1.7"></path></symbol>
<symbol id="i-smile" viewBox="0 0 24 24" fill="none" stroke="currentColor" stroke-width="2" stroke-linecap="round" stroke-linejoin="round"><circle cx="12" cy="12" r="8.5"></circle><circle cx="9" cy="10" r="1.1" fill="currentColor" stroke="none"></circle><circle cx="15" cy="10" r="1.1" fill="currentColor" stroke="none"></circle><path d="M8.5 14a4.5 4.5 0 007 0"></path></symbol>
<symbol id="i-guide" viewBox="0 0 24 24" fill="none" stroke="currentColor" stroke-width="2" stroke-linecap="round" stroke-linejoin="round"><circle cx="12" cy="9" r="4"></circle><path d="M12 13c-3.3 0-6 2-6 5h12c0-3-2.7-5-6-5z"></path><path d="M12 5.5l.9 1.8 2 .3-1.4 1.4.3 2-1.8-1-1.8 1 .3-2L9.1 7.6l2-.3z" stroke-width="1.3"></path></symbol>
<symbol id="i-bus" viewBox="0 0 24 24" fill="none" stroke="currentColor" stroke-width="2" stroke-linecap="round" stroke-linejoin="round"><rect x="3.5" y="5" width="17" height="12" rx="2.5"></rect><path d="M3.5 11h17M8 5v6"></path><circle cx="8" cy="19" r="1.6"></circle><circle cx="16" cy="19" r="1.6"></circle></symbol>
<symbol id="i-camera" viewBox="0 0 24 24" fill="none" stroke="currentColor" stroke-width="2" stroke-linecap="round" stroke-linejoin="round"><rect x="3" y="7" width="18" height="13" rx="3"></rect><path d="M8.5 7l1.5-2.5h4L15.5 7"></path><circle cx="12" cy="13.5" r="3.3"></circle></symbol>
<symbol id="i-shield" viewBox="0 0 24 24" fill="none" stroke="currentColor" stroke-width="2" stroke-linecap="round" stroke-linejoin="round"><path d="M12 3l7 3v5c0 4.5-3 8-7 10-4-2-7-5.5-7-10V6z"></path><path d="M9 12l2 2 4-4.5"></path></symbol>
<symbol id="i-heart" viewBox="0 0 24 24" fill="none" stroke="currentColor" stroke-width="2" stroke-linecap="round" stroke-linejoin="round"><path d="M12 20S4 14.5 4 9a4 4 0 018-1 4 4 0 018 1c0 5.5-8 11-8 11z"></path></symbol>
<symbol id="i-leaf" viewBox="0 0 24 24" fill="none" stroke="currentColor" stroke-width="2" stroke-linecap="round" stroke-linejoin="round"><path d="M20 4C9 4 4 9 4 18c0 0 1-7 8-9-5 4-5 9-5 9 9 0 13-5 13-14z"></path></symbol>
<symbol id="i-coffee" viewBox="0 0 24 24" fill="none" stroke="currentColor" stroke-width="2" stroke-linecap="round" stroke-linejoin="round"><path d="M4 8h13v5a5 5 0 01-5 5H9a5 5 0 01-5-5z"></path><path d="M17 9h2.5a2.5 2.5 0 010 5H17"></path><path d="M8 3.5c-.6 1 .6 1.5 0 2.5M12 3.5c-.6 1 .6 1.5 0 2.5"></path></symbol>
<symbol id="i-boat" viewBox="0 0 24 24" fill="none" stroke="currentColor" stroke-width="2" stroke-linecap="round" stroke-linejoin="round"><path d="M4 13h16l-2 5a3 3 0 01-2.8 2H8.8A3 3 0 016 18z"></path><path d="M12 13V4l6 5z"></path></symbol>
<symbol id="i-arrow" viewBox="0 0 24 24" fill="none" stroke="currentColor" stroke-width="2" stroke-linecap="round" stroke-linejoin="round"><path d="M5 12h14M13 6l6 6-6 6"></path></symbol>
<symbol id="i-tg" viewBox="0 0 24 24"><path d="M21.6 4.3 18.7 19c-.2 1-.8 1.2-1.6.75l-4.3-3.2-2.1 2c-.23.23-.43.43-.87.43l.3-4.4 8.1-7.3c.35-.3-.08-.48-.55-.18L7.9 12.6 3.6 11.3c-.93-.3-.95-.94.2-1.4L20.4 3.4c.78-.3 1.46.18 1.2 1z" fill="currentColor" stroke="none"></path></symbol>
<symbol id="i-wa" viewBox="0 0 24 24"><path d="M3 21l1.5-4.1A8 8 0 1 1 12 20a8 8 0 0 1-4-1.1L3 21z" fill="none" stroke="currentColor" stroke-width="2" stroke-linejoin="round"></path><path d="M9.3 8.2c-.15-.4-.35-.42-.55-.42-.55 0-.95.27-1.15.55-.38.48-.5 1.05-.2 1.8.58 1.55 2 3 3.7 3.6.85.3 1.45.2 1.95.1.4-.1.85-.5.95-.88.1-.3.1-.55 0-.66-.1-.1-.28-.18-.56-.36-.28-.18-.78-.48-.88-.5-.18-.08-.3-.08-.46.1-.12.18-.4.48-.5.58-.1.1-.18.1-.36 0-.56-.28-1.05-.56-1.5-1.25-.1-.18 0-.28.1-.38l.28-.36c.1-.12.1-.2.18-.36.04-.12 0-.24 0-.36l-.37-.96z" fill="currentColor" stroke="none"></path></symbol>
<symbol id="i-vk" viewBox="0 0 24 24"><text x="12" y="16.5" text-anchor="middle" font-family="Arial,Helvetica,sans-serif" font-weight="800" font-size="11" letter-spacing="-.5" fill="currentColor" stroke="none">VK</text></symbol>

<symbol id="i-tshirt" viewBox="0 0 24 24"><path d="M8.5 4 5 6 2.5 9 5 11.2 6.7 10V20h10.6V10l1.7 1.2L21.5 9 19 6l-3.5-2c-.9 1.8-6.1 1.8-7 0Z"/></symbol>
<symbol id="i-dress" viewBox="0 0 24 24"><path d="M9.5 3.5h5l-1.2 3.2 2.2 3-1.6 2.1 1.9 8.7H7.3l1.9-8.7-1.6-2.1 2.2-3z"/><path d="M9.5 3.5 12 6l2.5-2.5"/></symbol>
<symbol id="i-legs" viewBox="0 0 24 24"><path d="M7 3h10l-.8 8.5L15 21h-3.2l-.8-8H11l-.8 8H7L8.8 11.5z"/></symbol>
</defs></svg>